# xmcd
#
# Track frame offsets:
#	150
#	3877
#	24775
#	36962
#	51214
#	60680
#	81892
#
# Disc length: 1270
#
# Revision: 3
# Processed by: cddbd v1.5.1PL0 Copyright (c) Steve Scherf et al.
# Submitted via: CDex 1.50
# Normalized: r2:TRMNUM
#
DISCID=4904f407
DTITLE=Fat Possum Records - Darker Blues, Disk 02 R.L. Burnside
DYEAR=1900
DGENRE=Blues
TTITLE0=Boogie Intro
TTITLE1=Poor Me
TTITLE2=Go to Jail
TTITLE3=Bird Without a Feather
TTITLE4=Black Mattie
TTITLE5=I'm Goin With You Babe
TTITLE6=Detroit Boogie
EXTD=
EXTT0=
EXTT1=
EXTT2=
EXTT3=
EXTT4=
EXTT5=
EXTT6=
PLAYORDER=
